<svg xmlns="http://www.w3.org/2000/svg" width="450" height="436" viewBox="0 0 450 436" version="1.1"><path d="M 198.500 0.657 C 197.400 0.891, 192.924 1.770, 188.553 2.611 C 177.055 4.824, 151.748 12.323, 139.801 17.058 C 68.556 45.290, 18.361 108.891, 6.327 186.178 C 3.914 201.677, 3.909 233.273, 6.318 248.500 C 13.946 296.723, 36.603 340.599, 70.615 373.014 C 138.324 437.543, 235.685 452.102, 319.500 410.231 C 342.254 398.864, 370.449 377.523, 384.047 361.376 C 412.289 327.837, 428.181 292.780, 434.533 250 C 436.777 234.883, 436.770 206.565, 434.518 191.500 C 432.835 180.245, 428.245 160.659, 425.612 153.500 C 423.331 147.296, 423.743 150.084, 426.530 159.702 C 432.214 179.314, 433.468 189.511, 433.457 216 C 433.446 241.983, 432.756 248.086, 427.450 269.143 C 416.262 313.537, 390.288 352.862, 351.819 383.647 C 329.779 401.284, 295.763 417.189, 271 421.435 C 231.533 428.202, 190.872 424.394, 155.687 410.636 C 126.888 399.376, 106.662 386.412, 84.858 365.239 C 50.079 331.466, 30.376 293.714, 22.367 245.500 C 19.834 230.247, 19.796 197.969, 22.295 182.196 C 25.841 159.807, 31.452 141.991, 41.508 121.199 C 55.199 92.889, 70.232 73.770, 94.094 54.317 C 130.062 24.996, 178.805 7.975, 226.711 8.008 C 271.317 8.039, 315.674 22.688, 351.500 49.218 L 355.500 52.181 352 49.007 C 339.619 37.781, 315.112 23.697, 294.467 15.942 C 276.444 9.172, 255.260 4.410, 235.500 2.685 C 233.300 2.493, 234.894 2.261, 239.042 2.168 C 248.523 1.957, 267.318 4.381, 281 7.581 C 310.074 14.381, 341.770 29.657, 363.500 47.343 C 371.536 53.884, 390.705 72.893, 397.075 80.638 C 419.514 107.922, 435.183 143.003, 441.678 180.500 C 444.126 194.628, 444.121 232.436, 441.670 246.457 C 437.772 268.761, 432.243 286.294, 422.974 305.750 C 419.764 312.488, 417.362 318, 417.636 318 C 418.603 318, 430.859 291.387, 433.920 282.643 C 457.503 215.258, 445.691 139.262, 402.856 82.780 C 395.062 72.503, 379.144 55.954, 368.321 46.878 C 346.143 28.279, 315.422 12.505, 287.500 5.380 C 268.077 0.424, 263.477 -0.005, 231 0.117 C 214.225 0.180, 199.600 0.423, 198.500 0.657 M 224.200 136.200 C 223.540 136.860, 223 137.948, 223 138.618 C 223 139.289, 221.526 140.748, 219.724 141.861 C 216.543 143.828, 203.270 156.980, 201.419 160 C 200.914 160.825, 199.600 161.996, 198.500 162.602 C 194.182 164.982, 195.369 167.748, 204.727 177.106 C 214.578 186.956, 217.379 188.105, 219.278 183.073 C 219.886 181.463, 221.309 179.670, 222.442 179.088 C 223.574 178.507, 225.466 177.325, 226.646 176.463 C 228.728 174.941, 229.165 175.323, 241.471 189.447 C 253.798 203.594, 255.189 204.690, 260 204.032 C 264.778 203.378, 267.791 195.628, 264.750 191.814 C 264.063 190.952, 257.108 185.223, 249.295 179.083 L 235.089 167.919 238.295 163.521 C 240.058 161.103, 242.272 159.096, 243.215 159.062 C 244.751 159.006, 247 156.255, 247 154.431 C 247 152.944, 228.545 135, 227.016 135 C 226.127 135, 224.860 135.540, 224.200 136.200 M 26.204 148.407 C 10.544 191.397, 9.977 239.780, 24.617 284 C 41.685 335.555, 78.309 378.855, 126.010 403.877 C 158.083 420.701, 200.862 429.861, 235.500 427.322 L 246.500 426.515 225.500 425.862 C 210.876 425.406, 201.153 424.578, 193.476 423.132 C 91.435 403.922, 17.976 316.150, 18.030 213.500 C 18.042 190.089, 21.901 164.228, 28.046 146.367 C 31.150 137.345, 29.614 139.047, 26.204 148.407 M 192.185 202.684 C 191.462 202.973, 190.461 204.288, 189.960 205.605 C 189.331 207.259, 188.268 208, 186.525 208 C 184.257 208, 184 208.397, 184 211.893 C 184 214.520, 184.514 215.983, 185.582 216.393 C 187.654 217.188, 226.817 217.156, 229.803 216.356 C 231.744 215.836, 232.058 215.178, 231.803 212.159 C 231.574 209.454, 230.970 208.447, 229.329 208.039 C 228.135 207.743, 226.189 206.262, 225.006 204.750 L 222.855 202 208.177 202.079 C 200.105 202.122, 192.908 202.395, 192.185 202.684 M 88.315 246.007 C 84.093 247.708, 83.594 250.354, 83.177 273.250 L 82.780 295 85.890 295 L 89 295 89 288 L 89 281 92.500 281 L 96 281 96 288 L 96 295 99.156 295 L 102.312 295 101.722 273.692 C 101.364 260.761, 100.670 251.370, 99.956 249.803 C 98.076 245.676, 93.135 244.065, 88.315 246.007 M 137.306 246.010 C 133.629 247.491, 132.800 252.826, 133.165 272.651 C 133.466 288.953, 133.698 291.013, 135.447 292.944 C 136.997 294.654, 138.323 295.033, 141.939 294.797 C 147.127 294.458, 148.294 292.897, 149.449 284.750 L 150.123 280 147.061 280 C 144.346 280, 144 280.329, 144 282.918 C 144 287.097, 143.053 289, 140.973 289 C 138.571 289, 137.601 280.283, 138.183 263.948 C 138.640 251.129, 139.831 247.733, 142.567 251.441 C 143.355 252.509, 144 254.421, 144 255.691 C 144 257.608, 144.528 258, 147.107 258 C 149.529 258, 150.080 257.651, 149.607 256.418 C 149.273 255.548, 149 253.728, 149 252.373 C 149 251.018, 147.895 248.805, 146.545 247.455 C 144.015 244.924, 141.125 244.472, 137.306 246.010 M 192.656 246.078 C 188.961 248.335, 187.999 253.145, 188.024 269.218 C 188.060 292.091, 189.324 295.367, 197.899 294.794 C 205.185 294.307, 206.270 291.908, 206.806 275.102 C 207.323 258.913, 206.544 250.894, 204.171 247.963 C 202.186 245.511, 195.401 244.400, 192.656 246.078 M 283.656 246.078 C 279.940 248.348, 279 253.129, 279.006 269.718 C 279.012 289.015, 279.828 292.612, 284.655 294.629 C 287.386 295.770, 288.901 295.858, 291.438 295.020 C 296.480 293.356, 297.357 290.404, 297.798 273.622 C 298.239 256.817, 297.649 251.023, 295.185 247.980 C 293.186 245.512, 286.412 244.394, 283.656 246.078 M 332.364 246.170 C 329.242 247.681, 328 251.248, 328 258.705 L 328 265.316 334.051 271.127 L 340.102 276.939 339.801 282.719 C 339.540 287.732, 339.219 288.540, 337.380 288.802 C 335.176 289.117, 334.042 286.910, 334.014 282.250 C 334.003 280.420, 333.440 280, 331 280 C 328.233 280, 328 280.274, 328 283.532 C 328 288.649, 330.476 293.850, 333.451 294.981 C 337.080 296.361, 341.735 295.152, 344.031 292.234 C 346.830 288.675, 346.818 276.855, 344.011 272.250 C 342.921 270.462, 341.673 269, 341.238 269 C 340.802 269, 338.995 267.675, 337.223 266.056 C 334.349 263.431, 334 262.524, 334 257.679 C 334 251.200, 336.220 248.213, 338.608 251.479 C 339.374 252.526, 340 254.421, 340 255.691 C 340 257.611, 340.527 258, 343.132 258 C 346.239 258, 346.259 257.966, 345.694 253.752 C 344.744 246.670, 338.576 243.162, 332.364 246.170 M 108.220 267.250 C 108.715 289.832, 109.441 293.571, 113.533 294.598 C 117.881 295.689, 122.246 294.576, 124.263 291.861 C 126.024 289.491, 126.279 287.021, 126.759 267.611 L 127.294 246 124.236 246 L 121.178 246 120.839 266.466 C 120.565 282.996, 120.212 287.219, 119 288.430 C 117.982 289.446, 117.018 289.630, 116 289.001 C 114.762 288.237, 114.441 284.403, 114.163 267.037 L 113.825 246 110.790 246 L 107.755 246 108.220 267.250 M 153 248.434 C 153 250.345, 153.590 250.935, 155.750 251.184 L 158.500 251.500 158.770 273.250 L 159.039 295 162.020 295 L 165 295 165 273 L 165 251 168 251 C 170.533 251, 171 250.611, 171 248.500 C 171 246.019, 170.933 246, 162 246 C 153.132 246, 153 246.036, 153 248.434 M 175 270.500 L 175 295 178 295 L 181 295 181 270.500 L 181 246 178 246 L 175 246 175 270.500 M 213 270.500 L 213 295 216 295 C 217.650 295, 219.059 294.887, 219.132 294.750 C 219.204 294.613, 219.541 289.326, 219.882 283.001 L 220.500 271.503 223.897 283.251 C 227.210 294.710, 227.364 295, 230.147 295 L 233 295 233 270.500 L 233 246 230.027 246 L 227.055 246 226.777 260.250 L 226.500 274.500 223.693 264 C 222.150 258.225, 220.445 251.813, 219.905 249.750 C 219.049 246.482, 218.542 246, 215.961 246 L 213 246 213 270.500 M 254 270.500 L 254 295 257 295 L 260 295 260 283.500 L 260 272 263 272 L 266 272 266 283.500 L 266 295 269.500 295 L 273 295 273 270.500 L 273 246 269.500 246 L 266 246 266 256.500 L 266 267 263 267 L 260 267 260 256.500 L 260 246 257 246 L 254 246 254 270.500 M 304.180 267.797 C 304.450 286.174, 304.764 289.997, 306.182 292.159 C 308.231 295.282, 313.213 296.486, 316.858 294.739 C 321.577 292.477, 322.243 289.341, 322.784 266.818 L 323.283 246 319.662 246 L 316.040 246 315.770 267.250 C 315.506 288.023, 315.453 288.507, 313.385 288.802 C 310.413 289.226, 310 286.246, 310 264.375 L 310 246 306.930 246 L 303.860 246 304.180 267.797 M 352 270.500 L 352 295 359 295 L 366 295 366 292 C 366 289.167, 365.778 289, 362 289 L 358 289 358 280.563 L 358 272.127 361.250 271.813 C 363.741 271.573, 364.575 270.975, 364.820 269.250 C 365.100 267.277, 364.699 267, 361.570 267 L 358 267 358 259 L 358 251 362 251 C 365.600 251, 366 250.750, 366 248.500 C 366 246.071, 365.800 246, 359 246 L 352 246 352 270.500 M 90.354 251.195 C 89.896 251.913, 89.356 257.788, 89.155 264.250 L 88.789 276 92.395 276 L 96 276 95.926 267.750 C 95.821 256.070, 94.859 250.595, 92.843 250.208 C 91.932 250.033, 90.812 250.477, 90.354 251.195 M 195.067 251.874 C 193.936 253.988, 193.539 284.635, 194.607 287.418 C 194.941 288.288, 196.235 289, 197.482 289 C 199.222 289, 199.895 288.273, 200.375 285.875 C 201.165 281.923, 200.976 257.493, 200.124 253.512 C 199.365 249.966, 196.573 249.061, 195.067 251.874 M 286.003 252.492 C 284.928 255.319, 284.627 283.006, 285.630 286.750 C 286.030 288.241, 286.995 289, 288.492 289 C 290.221 289, 290.896 288.268, 291.375 285.875 C 292.201 281.744, 291.992 256.189, 291.106 253.005 C 290.132 249.504, 287.249 249.214, 286.003 252.492 M 250.269 425.693 C 251.242 425.947, 252.592 425.930, 253.269 425.656 C 253.946 425.382, 253.150 425.175, 251.500 425.195 C 249.850 425.215, 249.296 425.439, 250.269 425.693" stroke="none" fill="#a0826c" fill-rule="evenodd"/><path d="M 0 218.002 L 0 436.004 225.250 435.752 L 450.500 435.500 450.752 217.750 L 451.005 -0 357.252 0.108 C 277.286 0.200, 264.529 0.407, 270.500 1.513 C 298.847 6.765, 325.432 17.371, 349.321 32.958 C 374.524 49.403, 398.440 73.836, 414.240 99.280 C 447.655 153.091, 455.073 222.201, 433.920 282.643 C 430.859 291.387, 418.603 318, 417.636 318 C 417.362 318, 419.764 312.488, 422.974 305.750 C 432.243 286.294, 437.772 268.761, 441.670 246.457 C 444.121 232.436, 444.126 194.628, 441.678 180.500 C 435.183 143.003, 419.514 107.922, 397.075 80.638 C 390.705 72.893, 371.536 53.884, 363.500 47.343 C 341.770 29.657, 310.074 14.381, 281 7.581 C 267.318 4.381, 248.523 1.957, 239.042 2.168 C 234.894 2.261, 233.300 2.493, 235.500 2.685 C 255.260 4.410, 276.444 9.172, 294.467 15.942 C 315.112 23.697, 339.619 37.781, 352 49.007 L 355.500 52.181 351.500 49.218 C 288.614 2.649, 203.783 -5.037, 133.500 29.467 C 90.898 50.382, 61.654 79.542, 41.508 121.199 C 31.452 141.991, 25.841 159.807, 22.295 182.196 C 19.796 197.969, 19.834 230.247, 22.367 245.500 C 28.748 283.916, 42.720 315.765, 66.023 345.020 C 74.615 355.805, 94.479 375.139, 104.932 382.890 C 152.060 417.833, 211.518 431.633, 271 421.435 C 295.763 417.189, 329.779 401.284, 351.819 383.647 C 390.288 352.862, 416.262 313.537, 427.450 269.143 C 432.756 248.086, 433.446 241.983, 433.457 216 C 433.468 189.511, 432.214 179.314, 426.530 159.702 C 423.743 150.084, 423.331 147.296, 425.612 153.500 C 428.245 160.659, 432.835 180.245, 434.518 191.500 C 436.770 206.565, 436.777 234.883, 434.533 250 C 428.181 292.780, 412.289 327.837, 384.047 361.376 C 370.449 377.523, 342.254 398.864, 319.500 410.231 C 235.685 452.102, 138.324 437.543, 70.615 373.014 C 36.603 340.599, 13.946 296.723, 6.318 248.500 C 3.909 233.273, 3.914 201.677, 6.327 186.178 C 18.361 108.891, 68.556 45.290, 139.801 17.058 C 151.748 12.323, 177.055 4.824, 188.553 2.611 C 192.924 1.770, 197.400 0.891, 198.500 0.657 C 199.600 0.423, 155.388 0.180, 100.250 0.116 L 0 0 0 218.002 M 0.491 218.500 C 0.491 338.400, 0.608 387.598, 0.750 327.830 C 0.892 268.061, 0.892 169.961, 0.750 109.830 C 0.608 49.698, 0.491 98.600, 0.491 218.500 M 224.200 136.200 C 223.540 136.860, 223 137.948, 223 138.618 C 223 139.289, 221.526 140.748, 219.724 141.861 C 216.543 143.828, 203.270 156.980, 201.419 160 C 200.914 160.825, 199.600 161.996, 198.500 162.602 C 194.182 164.982, 195.369 167.748, 204.727 177.106 C 214.578 186.956, 217.379 188.105, 219.278 183.073 C 219.886 181.463, 221.309 179.670, 222.442 179.088 C 223.574 178.507, 225.466 177.325, 226.646 176.463 C 228.728 174.941, 229.165 175.323, 241.471 189.447 C 253.798 203.594, 255.189 204.690, 260 204.032 C 264.778 203.378, 267.791 195.628, 264.750 191.814 C 264.063 190.952, 257.108 185.223, 249.295 179.083 L 235.089 167.919 238.295 163.521 C 240.058 161.103, 242.272 159.096, 243.215 159.062 C 244.751 159.006, 247 156.255, 247 154.431 C 247 152.944, 228.545 135, 227.016 135 C 226.127 135, 224.860 135.540, 224.200 136.200 M 26.204 148.407 C 10.544 191.397, 9.977 239.780, 24.617 284 C 41.685 335.555, 78.309 378.855, 126.010 403.877 C 158.083 420.701, 200.862 429.861, 235.500 427.322 L 246.500 426.515 225.500 425.862 C 210.876 425.406, 201.153 424.578, 193.476 423.132 C 91.435 403.922, 17.976 316.150, 18.030 213.500 C 18.042 190.089, 21.901 164.228, 28.046 146.367 C 31.150 137.345, 29.614 139.047, 26.204 148.407 M 192.185 202.684 C 191.462 202.973, 190.461 204.288, 189.960 205.605 C 189.331 207.259, 188.268 208, 186.525 208 C 184.257 208, 184 208.397, 184 211.893 C 184 214.520, 184.514 215.983, 185.582 216.393 C 187.654 217.188, 226.817 217.156, 229.803 216.356 C 231.744 215.836, 232.058 215.178, 231.803 212.159 C 231.574 209.454, 230.970 208.447, 229.329 208.039 C 228.135 207.743, 226.189 206.262, 225.006 204.750 L 222.855 202 208.177 202.079 C 200.105 202.122, 192.908 202.395, 192.185 202.684 M 88.315 246.007 C 84.093 247.708, 83.594 250.354, 83.177 273.250 L 82.780 295 85.890 295 L 89 295 89 288 L 89 281 92.500 281 L 96 281 96 288 L 96 295 99.156 295 L 102.312 295 101.722 273.692 C 101.364 260.761, 100.670 251.370, 99.956 249.803 C 98.076 245.676, 93.135 244.065, 88.315 246.007 M 137.306 246.010 C 133.629 247.491, 132.800 252.826, 133.165 272.651 C 133.466 288.953, 133.698 291.013, 135.447 292.944 C 136.997 294.654, 138.323 295.033, 141.939 294.797 C 147.127 294.458, 148.294 292.897, 149.449 284.750 L 150.123 280 147.061 280 C 144.346 280, 144 280.329, 144 282.918 C 144 287.097, 143.053 289, 140.973 289 C 138.571 289, 137.601 280.283, 138.183 263.948 C 138.640 251.129, 139.831 247.733, 142.567 251.441 C 143.355 252.509, 144 254.421, 144 255.691 C 144 257.608, 144.528 258, 147.107 258 C 149.529 258, 150.080 257.651, 149.607 256.418 C 149.273 255.548, 149 253.728, 149 252.373 C 149 251.018, 147.895 248.805, 146.545 247.455 C 144.015 244.924, 141.125 244.472, 137.306 246.010 M 192.656 246.078 C 188.961 248.335, 187.999 253.145, 188.024 269.218 C 188.060 292.091, 189.324 295.367, 197.899 294.794 C 205.185 294.307, 206.270 291.908, 206.806 275.102 C 207.323 258.913, 206.544 250.894, 204.171 247.963 C 202.186 245.511, 195.401 244.400, 192.656 246.078 M 283.656 246.078 C 279.940 248.348, 279 253.129, 279.006 269.718 C 279.012 289.015, 279.828 292.612, 284.655 294.629 C 287.386 295.770, 288.901 295.858, 291.438 295.020 C 296.480 293.356, 297.357 290.404, 297.798 273.622 C 298.239 256.817, 297.649 251.023, 295.185 247.980 C 293.186 245.512, 286.412 244.394, 283.656 246.078 M 332.364 246.170 C 329.242 247.681, 328 251.248, 328 258.705 L 328 265.316 334.051 271.127 L 340.102 276.939 339.801 282.719 C 339.540 287.732, 339.219 288.540, 337.380 288.802 C 335.176 289.117, 334.042 286.910, 334.014 282.250 C 334.003 280.420, 333.440 280, 331 280 C 328.233 280, 328 280.274, 328 283.532 C 328 288.649, 330.476 293.850, 333.451 294.981 C 337.080 296.361, 341.735 295.152, 344.031 292.234 C 346.830 288.675, 346.818 276.855, 344.011 272.250 C 342.921 270.462, 341.673 269, 341.238 269 C 340.802 269, 338.995 267.675, 337.223 266.056 C 334.349 263.431, 334 262.524, 334 257.679 C 334 251.200, 336.220 248.213, 338.608 251.479 C 339.374 252.526, 340 254.421, 340 255.691 C 340 257.611, 340.527 258, 343.132 258 C 346.239 258, 346.259 257.966, 345.694 253.752 C 344.744 246.670, 338.576 243.162, 332.364 246.170 M 108.220 267.250 C 108.715 289.832, 109.441 293.571, 113.533 294.598 C 117.881 295.689, 122.246 294.576, 124.263 291.861 C 126.024 289.491, 126.279 287.021, 126.759 267.611 L 127.294 246 124.236 246 L 121.178 246 120.839 266.466 C 120.565 282.996, 120.212 287.219, 119 288.430 C 117.982 289.446, 117.018 289.630, 116 289.001 C 114.762 288.237, 114.441 284.403, 114.163 267.037 L 113.825 246 110.790 246 L 107.755 246 108.220 267.250 M 153 248.434 C 153 250.345, 153.590 250.935, 155.750 251.184 L 158.500 251.500 158.770 273.250 L 159.039 295 162.020 295 L 165 295 165 273 L 165 251 168 251 C 170.533 251, 171 250.611, 171 248.500 C 171 246.019, 170.933 246, 162 246 C 153.132 246, 153 246.036, 153 248.434 M 175 270.500 L 175 295 178 295 L 181 295 181 270.500 L 181 246 178 246 L 175 246 175 270.500 M 213 270.500 L 213 295 216 295 C 217.650 295, 219.059 294.887, 219.132 294.750 C 219.204 294.613, 219.541 289.326, 219.882 283.001 L 220.500 271.503 223.897 283.251 C 227.210 294.710, 227.364 295, 230.147 295 L 233 295 233 270.500 L 233 246 230.027 246 L 227.055 246 226.777 260.250 L 226.500 274.500 223.693 264 C 222.150 258.225, 220.445 251.813, 219.905 249.750 C 219.049 246.482, 218.542 246, 215.961 246 L 213 246 213 270.500 M 254 270.500 L 254 295 257 295 L 260 295 260 283.500 L 260 272 263 272 L 266 272 266 283.500 L 266 295 269.500 295 L 273 295 273 270.500 L 273 246 269.500 246 L 266 246 266 256.500 L 266 267 263 267 L 260 267 260 256.500 L 260 246 257 246 L 254 246 254 270.500 M 304.180 267.797 C 304.450 286.174, 304.764 289.997, 306.182 292.159 C 308.231 295.282, 313.213 296.486, 316.858 294.739 C 321.577 292.477, 322.243 289.341, 322.784 266.818 L 323.283 246 319.662 246 L 316.040 246 315.770 267.250 C 315.506 288.023, 315.453 288.507, 313.385 288.802 C 310.413 289.226, 310 286.246, 310 264.375 L 310 246 306.930 246 L 303.860 246 304.180 267.797 M 352 270.500 L 352 295 359 295 L 366 295 366 292 C 366 289.167, 365.778 289, 362 289 L 358 289 358 280.563 L 358 272.127 361.250 271.813 C 363.741 271.573, 364.575 270.975, 364.820 269.250 C 365.100 267.277, 364.699 267, 361.570 267 L 358 267 358 259 L 358 251 362 251 C 365.600 251, 366 250.750, 366 248.500 C 366 246.071, 365.800 246, 359 246 L 352 246 352 270.500 M 90.354 251.195 C 89.896 251.913, 89.356 257.788, 89.155 264.250 L 88.789 276 92.395 276 L 96 276 95.926 267.750 C 95.821 256.070, 94.859 250.595, 92.843 250.208 C 91.932 250.033, 90.812 250.477, 90.354 251.195 M 195.067 251.874 C 193.936 253.988, 193.539 284.635, 194.607 287.418 C 194.941 288.288, 196.235 289, 197.482 289 C 199.222 289, 199.895 288.273, 200.375 285.875 C 201.165 281.923, 200.976 257.493, 200.124 253.512 C 199.365 249.966, 196.573 249.061, 195.067 251.874 M 286.003 252.492 C 284.928 255.319, 284.627 283.006, 285.630 286.750 C 286.030 288.241, 286.995 289, 288.492 289 C 290.221 289, 290.896 288.268, 291.375 285.875 C 292.201 281.744, 291.992 256.189, 291.106 253.005 C 290.132 249.504, 287.249 249.214, 286.003 252.492 M 250.269 425.693 C 251.242 425.947, 252.592 425.930, 253.269 425.656 C 253.946 425.382, 253.150 425.175, 251.500 425.195 C 249.850 425.215, 249.296 425.439, 250.269 425.693" stroke="none" fill="#205e6c" fill-rule="evenodd"/></svg>